<mxfile host="app.diagrams.net" modified="2024-06-25T13:46:47.950Z" agent="Mozilla/5.0 (Windows NT 10.0; Win64; x64) AppleWebKit/537.36 (KHTML, like Gecko) Chrome/126.0.0.0 Safari/537.36" version="24.6.2" etag="mUN-Avum0WK0-OY4ddmH" type="github">
  <diagram name="第 1 页" id="VTLVVC3IAd4aUOP3F9kF">
    <mxGraphModel>
      <root>
        <mxCell id="0" />
        <mxCell id="1" parent="0" />
      </root>
    </mxGraphModel>
  </diagram>
</mxfile>
